<?xml version="1.0" standalone="no"?>
<!DOCTYPE svg PUBLIC "-//W3C//DTD SVG 20010904//EN"
 "http://www.w3.org/TR/2001/REC-SVG-20010904/DTD/svg10.dtd">
<svg version="1.0" xmlns="http://www.w3.org/2000/svg"
 width="547.000000pt" height="547.000000pt" viewBox="0 0 547.000000 547.000000"
 preserveAspectRatio="xMidYMid meet">
<metadata>
Created by potrace 1.14, written by Peter Selinger 2001-2017
</metadata>
<g transform="translate(0.000000,547.000000) scale(0.100000,-0.100000)"
fill="#000000" stroke="none">
<path d="M1311 5412 c-25 -117 -102 -242 -236 -381 -155 -162 -380 -310 -515
-340 -25 -5 -58 -13 -73 -16 l-29 -6 44 -47 c313 -337 404 -671 308 -1136 -26
-125 -88 -347 -166 -591 -198 -618 -232 -990 -123 -1358 82 -277 242 -515 450
-672 176 -133 363 -210 751 -311 428 -111 590 -170 740 -272 75 -51 194 -168
238 -234 14 -21 27 -38 30 -38 3 0 16 17 30 38 43 65 162 183 235 232 154 105
310 162 743 274 477 124 690 228 890 435 179 185 314 471 357 755 44 302 -5
640 -169 1151 -78 244 -140 466 -166 591 -96 465 -5 799 308 1136 l44 47 -29
6 c-15 3 -48 11 -73 16 -135 30 -360 178 -515 340 -135 140 -206 256 -242 397
l-8 33 -60 -46 c-231 -180 -495 -301 -785 -359 -365 -74 -755 -74 -1120 0
-282 57 -536 170 -761 341 -37 28 -71 53 -77 57 -6 4 -14 -13 -21 -42z m146
-138 c439 -292 1030 -404 1673 -319 328 44 620 151 875 321 47 31 87 55 89 53
2 -2 18 -34 35 -72 98 -206 390 -479 633 -592 42 -19 81 -35 87 -35 18 0 13
-9 -33 -63 -105 -124 -190 -285 -231 -439 -77 -288 -47 -588 110 -1083 199
-625 243 -841 232 -1134 -8 -220 -42 -357 -137 -558 -88 -185 -215 -341 -367
-449 -165 -118 -339 -185 -785 -303 -388 -103 -519 -153 -672 -256 -83 -55
-146 -110 -204 -178 l-32 -38 -32 38 c-58 68 -121 123 -204 178 -153 103 -284
153 -672 256 -346 91 -487 138 -616 203 -253 129 -416 296 -536 549 -95 201
-129 338 -137 558 -11 293 33 509 232 1134 157 495 187 795 110 1083 -41 155
-126 315 -232 440 -25 29 -44 54 -42 56 2 1 35 15 72 31 80 33 214 115 301
185 149 118 318 320 368 439 11 28 23 51 26 51 3 0 43 -25 89 -56z"/>
<path d="M1373 5077 c-104 -148 -273 -309 -449 -427 -56 -37 -106 -69 -113
-71 -7 -3 11 -47 48 -119 124 -240 168 -396 177 -630 11 -252 -25 -437 -167
-880 -140 -436 -176 -583 -200 -805 -41 -388 92 -819 325 -1051 88 -87 168
-142 300 -204 135 -64 242 -99 529 -171 476 -119 646 -190 835 -348 l72 -61
73 61 c188 158 358 229 834 348 287 72 394 107 529 171 132 62 212 117 300
204 233 232 364 655 325 1046 -23 222 -59 368 -200 810 -142 443 -178 628
-167 880 9 234 53 390 177 630 37 72 55 116 48 119 -7 2 -57 34 -113 71 -176
118 -345 279 -449 427 l-50 71 -56 -36 c-84 -53 -304 -157 -410 -192 -126 -43
-343 -86 -521 -106 -379 -41 -851 2 -1161 106 -106 35 -326 139 -410 192 l-56
36 -50 -71z m1405 -647 l43 -129 142 -3 141 -3 -115 -83 -115 -82 43 -127 c24
-70 42 -130 41 -134 -2 -4 -52 29 -113 72 -60 43 -112 79 -115 79 -3 0 -54
-36 -115 -79 -60 -44 -111 -76 -113 -72 -1 4 17 64 41 134 l43 127 -115 82
-115 83 141 3 142 3 43 129 c23 72 45 130 48 130 3 0 25 -58 48 -130z m-1344
-45 l27 -85 90 0 c49 0 89 -4 89 -9 0 -5 -31 -31 -69 -59 l-69 -51 28 -90 c15
-50 26 -91 24 -91 -2 0 -38 25 -79 55 l-75 55 -75 -55 c-43 -32 -75 -50 -75
-42 0 7 11 47 25 87 14 40 25 76 25 79 0 3 -32 28 -70 56 -39 27 -70 53 -70
57 0 4 40 8 89 8 l90 0 27 85 c16 47 31 85 34 85 3 0 18 -38 34 -85z m602 0
l28 -85 93 0 c51 0 93 -3 93 -7 0 -5 -32 -30 -70 -57 -39 -27 -70 -54 -70 -60
0 -6 12 -46 26 -89 14 -43 24 -80 21 -83 -2 -3 -37 20 -77 50 -82 61 -70 62
-167 -9 -35 -26 -63 -42 -63 -37 0 5 11 42 25 82 14 40 25 79 25 85 0 7 -31
34 -70 61 -38 27 -70 52 -70 57 0 4 42 7 94 7 l93 0 18 63 c21 74 33 107 39
107 3 0 17 -38 32 -85z m1436 3 l26 -83 91 -3 c50 -1 91 -6 91 -11 0 -6 -61
-53 -133 -102 -5 -4 2 -41 18 -88 15 -45 25 -85 22 -88 -4 -3 -37 18 -76 46
l-70 50 -77 -55 c-42 -30 -78 -54 -79 -52 -2 2 10 43 25 93 16 49 28 90 27 91
-94 63 -145 103 -140 108 3 3 46 6 93 6 99 0 90 -9 126 113 10 31 21 57 24 57
4 0 18 -37 32 -82z m604 -3 l28 -85 88 0 c48 0 88 -4 88 -9 0 -5 -31 -31 -70
-59 l-69 -51 14 -42 c8 -22 21 -63 29 -90 17 -57 20 -58 -80 15 l-61 45 -74
-54 c-41 -29 -75 -52 -77 -50 -2 2 8 40 22 85 14 44 26 85 26 89 0 4 -31 29
-70 56 -38 27 -70 52 -70 56 0 5 41 10 92 11 l91 3 24 70 c31 92 32 95 37 95
3 0 17 -38 32 -85z m-1463 -902 c10 -109 17 -213 17 -231 l0 -33 -47 3 -48 3
-8 90 c-4 49 -10 91 -12 93 -2 3 -43 1 -90 -3 l-86 -7 6 -76 c4 -43 8 -87 11
-98 3 -19 -2 -23 -42 -29 -25 -3 -48 -5 -50 -3 -3 4 -44 413 -44 446 0 8 16
12 49 12 l48 0 7 -52 c3 -29 6 -68 6 -87 l0 -34 68 6 c37 4 77 7 90 7 23 0 23
1 17 89 -8 99 -10 96 65 100 l26 1 17 -197z m437 184 c0 -2 36 -106 80 -233
44 -126 80 -230 80 -232 0 -2 -23 -2 -52 0 l-51 3 -17 50 -17 50 -59 6 c-127
14 -126 14 -151 -41 -21 -49 -23 -50 -66 -50 -24 0 -46 3 -49 6 -4 3 30 83 74
177 44 95 89 193 100 220 l21 47 53 0 c30 0 54 -1 54 -3z m573 -99 c115 -30
158 -79 143 -162 -9 -45 -45 -82 -94 -96 l-41 -11 19 -32 c10 -17 32 -67 49
-109 32 -86 32 -86 -43 -67 -43 11 -44 12 -75 95 -36 93 -63 130 -102 139 -25
6 -26 4 -46 -82 l-20 -88 -39 3 c-21 2 -43 7 -48 12 -8 8 46 269 86 416 l8 31
63 -14 c34 -8 97 -23 140 -35z m-1643 -4 c26 -16 60 -62 60 -81 0 -5 -20 -14
-44 -20 -39 -9 -45 -7 -64 14 -24 27 -58 29 -107 9 -27 -12 -35 -21 -35 -40 0
-30 7 -32 129 -41 96 -7 134 -23 161 -68 42 -69 16 -153 -61 -196 -52 -29
-163 -40 -210 -21 -28 12 -89 81 -89 100 0 4 20 13 43 20 43 11 45 11 75 -19
37 -37 81 -41 130 -11 25 15 32 27 32 50 0 39 -27 50 -121 50 -77 0 -123 15
-157 52 -82 89 18 218 170 218 38 0 70 -6 88 -16z m-415 -312 c39 -114 70
-211 70 -216 0 -13 -77 -38 -87 -28 -5 5 -39 102 -78 216 -68 205 -69 207 -47
215 12 4 29 11 37 14 8 3 20 6 25 6 6 1 42 -92 80 -207z m2456 197 c19 -7 35
-13 36 -14 3 -2 -133 -411 -141 -424 -7 -11 -99 17 -94 29 2 5 35 101 73 214
39 113 75 206 81 206 6 0 26 -5 45 -11z m-1368 -590 l47 -11 0 -570 c0 -528
-1 -570 -17 -564 -84 32 -160 30 -301 -10 -107 -31 -274 -41 -345 -22 l-48 13
-184 552 c-102 304 -185 558 -185 566 0 11 17 10 88 -5 123 -27 286 -19 502
22 265 51 324 55 443 29z m577 -26 c238 -44 397 -52 523 -25 70 15 87 16 87 5
0 -8 -83 -262 -184 -566 l-185 -552 -43 -12 c-81 -22 -203 -16 -328 16 -179
46 -236 49 -323 16 -16 -7 -17 24 -17 559 0 646 -11 579 98 595 79 12 157 4
372 -36z m-935 -1413 c57 -25 142 -121 160 -184 20 -65 18 -109 -4 -174 l-18
-53 23 -16 c34 -22 97 -27 150 -13 l45 13 29 -34 c16 -19 29 -37 30 -40 0 -3
-19 -15 -42 -25 -58 -26 -199 -26 -246 -1 -44 24 -116 100 -138 145 -25 52
-31 167 -10 216 21 51 21 53 -15 71 -39 20 -128 21 -166 2 -107 -56 -136 -211
-55 -300 45 -50 139 -71 210 -46 28 10 33 8 61 -23 17 -18 31 -36 31 -39 1
-19 -103 -49 -167 -49 -249 0 -378 304 -205 483 87 91 212 116 327 67z m369 1
c49 -22 131 -107 153 -159 21 -49 20 -156 -1 -206 -21 -51 -21 -50 19 -69 43
-21 116 -22 153 -3 26 14 29 13 60 -24 17 -21 32 -41 32 -43 0 -3 -22 -14 -49
-26 -66 -28 -169 -28 -231 0 -40 18 -84 57 -131 116 -43 54 -56 184 -25 258
16 37 16 40 -1 52 -19 14 -79 33 -103 33 -8 -1 -33 -7 -55 -15 -38 -14 -41
-13 -60 8 -48 54 -48 53 -8 72 21 10 52 22 68 26 43 11 132 1 179 -20z m367
-3 c56 -23 108 -76 143 -142 30 -57 35 -154 11 -221 -8 -22 -15 -43 -15 -47 0
-3 20 -14 45 -23 158 -61 306 97 236 250 -39 88 -126 128 -219 102 l-54 -15
-29 32 c-16 17 -29 35 -29 39 0 21 97 51 165 51 117 -1 213 -63 262 -172 21
-45 24 -65 21 -125 -5 -87 -26 -136 -88 -198 -60 -60 -127 -83 -219 -77 -79 6
-121 26 -170 80 -20 23 -45 50 -55 61 -22 23 -46 97 -46 142 0 29 16 93 35
137 15 38 -129 68 -184 39 -27 -15 -25 -16 -56 25 -34 44 -25 56 55 78 64 18
125 13 191 -16z"/>
<path d="M2954 3475 l-31 -73 56 -5 c31 -2 58 -3 60 -1 4 3 -39 137 -48 146
-3 3 -20 -27 -37 -67z"/>
<path d="M3482 3463 c-6 -27 -7 -51 -4 -55 4 -4 39 -13 79 -20 82 -14 103 -5
103 42 0 35 -16 48 -82 66 -80 21 -83 20 -96 -33z"/>
<path d="M2375 2644 c-16 -3 -102 -18 -189 -35 -126 -25 -176 -30 -240 -27
-45 3 -88 8 -97 12 -12 5 -18 0 -23 -20 -4 -15 -2 -32 4 -38 6 -6 59 -12 118
-14 89 -3 132 1 257 26 83 17 173 33 201 37 47 6 135 -4 175 -20 10 -4 19 3
27 20 11 25 10 27 -25 41 -37 16 -154 26 -208 18z"/>
<path d="M2375 2396 c-38 -8 -113 -24 -165 -35 -102 -22 -214 -27 -268 -12
-30 9 -34 7 -44 -15 -14 -29 -10 -33 39 -45 71 -16 180 -10 320 20 176 37 237
44 295 33 46 -9 47 -8 57 19 7 22 6 29 -6 33 -36 14 -162 15 -228 2z"/>
<path d="M2265 2149 c-113 -24 -155 -29 -217 -24 -77 5 -78 5 -84 -20 -4 -14
-3 -29 1 -33 4 -4 57 -7 118 -7 87 0 139 7 232 29 93 21 138 27 202 24 80 -3
82 -2 88 21 4 15 1 27 -7 32 -28 18 -193 7 -333 -22z"/>
<path d="M2445 1974 c-230 -57 -283 -66 -343 -61 -58 6 -64 5 -71 -16 -14 -35
3 -42 102 -42 67 0 123 8 207 29 87 21 132 27 187 24 l72 -3 7 28 c3 16 4 31
1 33 -7 7 -139 14 -162 8z"/>
<path d="M2902 2636 c-29 -7 -55 -16 -58 -18 -2 -3 1 -17 7 -32 8 -17 18 -25
27 -21 85 32 150 29 372 -17 122 -25 163 -29 257 -26 62 2 117 8 123 14 7 7 8
19 1 37 -9 24 -13 25 -43 16 -60 -17 -172 -9 -323 21 -181 37 -291 45 -363 26z"/>
<path d="M2882 2401 c-43 -11 -44 -13 -33 -43 9 -25 11 -25 66 -16 59 11 132
1 330 -42 101 -22 214 -26 281 -9 24 6 44 13 44 15 0 2 -5 15 -12 29 -8 18
-16 24 -27 19 -9 -4 -54 -9 -101 -11 -70 -4 -109 1 -225 27 -149 33 -269 45
-323 31z"/>
<path d="M2859 2173 c-13 -3 -15 -10 -10 -31 7 -26 8 -26 92 -23 65 2 110 -4
199 -25 89 -21 141 -28 227 -28 123 -1 140 5 124 47 -9 24 -12 25 -48 15 -49
-13 -141 -5 -287 27 -107 23 -247 32 -297 18z"/>
<path d="M2885 1974 c-44 -11 -45 -12 -35 -41 10 -28 11 -28 84 -25 55 3 101
-3 187 -25 111 -27 286 -39 304 -21 4 4 5 18 2 30 -6 23 -10 24 -99 24 -69 0
-119 8 -192 27 -97 27 -212 41 -251 31z"/>
</g>
</svg>
